<svg width="65" height="64" viewBox="0 0 65 64" fill="none" xmlns="http://www.w3.org/2000/svg">
<path d="M58.4969 2.11392L58.4972 2.11408C59.5111 2.67781 60.404 3.43574 61.125 4.34456C61.8459 5.25339 62.3808 6.29533 62.6991 7.41089C63.0173 8.52644 63.1127 9.69376 62.9798 10.8462C62.8469 11.9986 62.4884 13.1136 61.9245 14.1274L61.9243 14.1278L37.3411 58.3776C36.6769 59.5725 35.7444 60.5969 34.617 61.3702C33.4986 62.1374 32.2186 62.6366 30.8765 62.8294L29.5858 62.9226C27.2755 62.9134 25.0376 61.9958 23.3767 60.3304L23.3758 60.3295L3.70911 40.6628L3.70296 40.6567L3.69671 40.6506C2.85304 39.8358 2.1801 38.8611 1.71715 37.7834C1.2542 36.7057 1.01053 35.5466 1.00033 34.3737C0.990141 33.2008 1.21364 32.0376 1.65779 30.952C2.10194 29.8665 2.75784 28.8802 3.58722 28.0508C4.41661 27.2214 5.40287 26.5655 6.48845 26.1214C7.57404 25.6772 8.73721 25.4537 9.91009 25.4639C11.083 25.4741 12.2421 25.7178 13.3198 26.1807C14.3975 26.6437 15.3722 27.3166 16.187 28.1603L16.1931 28.1666L16.1992 28.1727L26.6471 38.6206L27.5845 39.558L28.2284 38.3992L46.484 5.54606L46.4843 5.54547C47.0472 4.53086 47.8046 3.63715 48.7131 2.91546C49.6217 2.19378 50.6636 1.65827 51.7793 1.33956C52.8949 1.02086 54.0625 0.925206 55.2152 1.05808C56.3679 1.19095 57.483 1.54973 58.4969 2.11392Z" fill="#2CE054" stroke="#FFB800" stroke-width="2"/>
</svg>
