<svg width="87" height="73" viewBox="0 0 87 73" fill="none" xmlns="http://www.w3.org/2000/svg">
<path d="M87 15C87 6.71573 80.2843 0 72 0H0V73H72C80.2843 73 87 66.2843 87 58V15Z" fill="black" fill-opacity="0.47"/>
<path d="M29.6196 22.1773L43.3079 34.3678L56.9399 22.2274C57.1788 22.001 57.4666 21.8198 57.7861 21.6948C58.1055 21.5698 58.45 21.5035 58.7989 21.5C59.5458 21.5 60.2622 21.7643 60.7904 22.2347C61.3186 22.7051 61.6154 23.3431 61.6154 24.0083C61.622 24.3159 61.5579 24.6213 61.4271 24.906C61.2963 25.1907 61.1016 25.4486 60.8549 25.6638L47.0821 37.8042L60.8549 50.07C61.3191 50.4744 61.5913 51.0221 61.6154 51.6001C61.6154 52.2653 61.3186 52.9033 60.7904 53.3737C60.2622 53.8441 59.5458 54.1084 58.7989 54.1084C58.4399 54.1217 58.0818 54.0683 57.7472 53.9517C57.4127 53.8351 57.109 53.6579 56.8554 53.4312L43.3079 41.2406L29.6477 53.4061C29.4098 53.625 29.1255 53.7997 28.8112 53.9203C28.497 54.0408 28.1591 54.1048 27.817 54.1084C27.07 54.1084 26.3536 53.8441 25.8254 53.3737C25.2972 52.9033 25.0005 52.2653 25.0005 51.6001C24.9939 51.2925 25.058 50.9871 25.1887 50.7024C25.3195 50.4177 25.5142 50.1598 25.7609 49.9446L39.5338 37.8042L25.7609 25.5384C25.2967 25.134 25.0245 24.5863 25.0005 24.0083C25.0005 23.3431 25.2972 22.7051 25.8254 22.2347C26.3536 21.7643 27.07 21.5 27.817 21.5C28.493 21.5075 29.1408 21.7508 29.6196 22.1773Z" fill="white"/>
</svg>
