<svg width="290" height="290" viewBox="0 0 290 290" fill="none" xmlns="http://www.w3.org/2000/svg">
<g filter="url(#filter0_d)">
<path d="M41.1891 41.1926C96.1031 -13.7309 185.147 -13.7309 240.061 41.1926C294.98 96.1019 294.98 185.146 240.061 240.06C185.147 294.974 96.1031 294.974 41.1891 240.06C-13.7297 185.146 -13.7297 96.1066 41.1891 41.1926Z" fill="#ED526E"/>
<path d="M240.061 41.1926C185.147 -13.7309 96.1031 -13.7309 41.1891 41.1926C-13.7297 96.1066 -13.7297 185.146 41.1891 240.06C96.1031 294.974 185.147 294.974 240.061 240.06C294.98 185.146 294.98 96.1019 240.061 41.1926ZM107.812 234.43V46.8223L201.562 140.624L107.812 234.43Z" fill="#FFB800"/>
</g>
<defs>
<filter id="filter0_d" x="0" y="0" width="289.25" height="289.245" filterUnits="userSpaceOnUse" color-interpolation-filters="sRGB">
<feFlood flood-opacity="0" result="BackgroundImageFix"/>
<feColorMatrix in="SourceAlpha" type="matrix" values="0 0 0 0 0 0 0 0 0 0 0 0 0 0 0 0 0 0 127 0"/>
<feOffset dx="4" dy="4"/>
<feGaussianBlur stdDeviation="2"/>
<feColorMatrix type="matrix" values="0 0 0 0 0 0 0 0 0 0 0 0 0 0 0 0 0 0 0.25 0"/>
<feBlend mode="normal" in2="BackgroundImageFix" result="effect1_dropShadow"/>
<feBlend mode="normal" in="SourceGraphic" in2="effect1_dropShadow" result="shape"/>
</filter>
</defs>
</svg>
