<svg width="24" height="34" viewBox="0 0 24 34" fill="none" xmlns="http://www.w3.org/2000/svg">
<path d="M12 5.3126C8.39046 5.3126 5.45455 8.17211 5.45455 11.6877C5.45455 12.2748 5.94273 12.7502 6.54545 12.7502C7.14818 12.7502 7.63636 12.2748 7.63636 11.6877C7.63636 9.34354 9.59455 7.43764 12 7.43764C12.6027 7.43764 13.0909 6.96217 13.0909 6.37512C13.0909 5.78808 12.6027 5.3126 12 5.3126ZM6.54955 30.4924C6.54955 30.7015 6.61295 30.9054 6.73227 31.0794L8.40341 33.5258C8.60591 33.822 8.94682 34 9.31159 34H14.6877C15.0532 34 15.3941 33.822 15.5959 33.5258L17.267 31.0794C17.3857 30.9054 17.4491 30.7009 17.4498 30.4924L17.4532 27.6249H6.54682L6.54955 30.4924ZM12 0C5.02636 0 0 5.50983 0 11.6877C0 14.6342 1.12159 17.3224 2.97 19.3764C4.10455 20.6375 5.88409 23.2812 6.54409 25.4965V25.5005H9.81682V25.4925C9.81614 25.1758 9.76773 24.861 9.67023 24.5582C9.28909 23.3755 8.11432 20.257 5.43136 17.2753C4.03091 15.7193 3.28227 13.7457 3.27614 11.6877C3.2625 6.79748 7.34455 3.18756 12 3.18756C16.8123 3.18756 20.7273 7.00068 20.7273 11.6877C20.7273 13.7444 19.9609 15.7286 18.5693 17.2753C15.9027 20.2377 14.7225 23.3496 14.3352 24.5442C14.2353 24.8514 14.1842 25.1716 14.1839 25.4939V25.5005H17.4566V25.4972C18.1166 23.2812 19.8961 20.6375 21.0307 19.3771C22.8784 17.3224 24 14.6342 24 11.6877C24 5.23291 18.6273 0 12 0Z" fill="#FFFADC"/>
</svg>
