<svg width="31" height="33" viewBox="0 0 31 33" fill="none" xmlns="http://www.w3.org/2000/svg">
<path d="M29.0948 5.39364L16.6948 0.236892C16.3171 0.0805003 15.9122 0 15.5032 0C15.0943 0 14.6894 0.0805003 14.3117 0.236892L1.91167 5.39364C0.755625 5.87064 0 6.99868 0 8.2492C0 21.0444 7.39479 29.8882 14.3052 32.7631C15.0673 33.079 15.9262 33.079 16.6883 32.7631C22.2231 30.4619 31 22.5141 31 8.2492C31 6.99868 30.2444 5.87064 29.0948 5.39364ZM15.5065 28.7666L15.5 4.20759L26.8602 8.93247C26.6471 18.6916 21.5579 25.7628 15.5065 28.7666Z" fill="#FFFADC"/>
</svg>
