<svg width="31" height="31" viewBox="0 0 31 31" fill="none" xmlns="http://www.w3.org/2000/svg">
<path d="M7.04412 3.59369H3.59394L19.7667 19.7653L21.5636 18.0763L7.04412 3.59369ZM30.4766 28.9652L28.9672 30.4745C28.8009 30.6411 28.6034 30.7733 28.3861 30.8634C28.1687 30.9536 27.9356 31 27.7003 31C27.4649 31 27.2319 30.9536 27.0145 30.8634C26.7971 30.7733 26.5997 30.6411 26.4334 30.4745L20.8269 24.8684L16.011 29.648L13.4773 27.1144L16.029 24.5629L0 8.53502V0H8.53561L24.5646 16.0279L27.1163 13.4764L29.65 16.0099L24.8521 20.8075L30.4586 26.4137C31.1774 27.1324 31.1774 28.2644 30.4766 28.9652Z" fill="#FFFADC"/>
</svg>
